# xmcd CD database file
#
# Track frame offsets:
#	150
#	1625
#	19077
#	37120
#	54697
#	74260
#	94332
#	115995
#	135302
#	151562
#	167920
#	188342
#
# Disc length: 2526 seconds
#
# Revision: 2
# Processed by: cddbd v1.4PL0 Copyright (c) Steve Scherf et al.
# Submitted via: jetAudio 5
#
DISCID=8d09dc0c
DTITLE=孟庭葦 - 心言手語
DYEAR=1900
DGENRE=
TTITLE0=晨
TTITLE1=手語
TTITLE2=將錯就錯
TTITLE3=愛情海
TTITLE4=愛情的真相
TTITLE5=逃
TTITLE6=心電感應
TTITLE7=你是誰
TTITLE8=無處可藏
TTITLE9=傷了你的心的我傷心
TTITLE10=放在心裡面
TTITLE11=夜
EXTD=
EXTT0=
EXTT1=
EXTT2=
EXTT3=
EXTT4=
EXTT5=
EXTT6=
EXTT7=
EXTT8=
EXTT9=
EXTT10=
EXTT11=
PLAYORDER=
